<svg version="1.1" id="Layer_1" xmlns="http://www.w3.org/2000/svg" xmlns:xlink="http://www.w3.org/1999/xlink" x="10px" y="10px"
	 width="100%" viewBox="0 0 480 352" enable-background="new 0 0 480 352" xml:space="preserve">
<path fill="#000000" opacity="1.000000" stroke="none" 
	d="
M423.191895,171.975891 
	C430.613861,169.841507 437.628754,167.765915 444.676971,165.810471 
	C446.419983,165.326904 448.881256,163.555145 449.852234,166.211029 
	C450.936890,169.177811 447.839752,169.611664 445.938965,170.218246 
	C440.003448,172.112473 434.029358,173.903702 428.013702,175.525146 
	C415.845367,178.804932 403.645905,181.970016 391.443268,185.120438 
	C389.608154,185.594223 388.469055,186.428528 388.343689,188.429413 
	C387.614380,200.069550 385.441406,211.488968 382.469788,223.810318 
	C405.954468,220.334213 427.562134,211.632004 450.333649,207.414261 
	C450.636200,210.835388 448.599487,211.271973 447.252899,211.666138 
	C428.444946,217.171539 409.935577,223.735962 390.501709,227.023468 
	C384.767914,227.993423 379.628448,229.901764 377.434174,237.080154 
	C374.280426,247.397217 368.459930,256.678650 362.796814,265.895233 
	C362.206360,266.856201 361.684937,267.859528 360.519409,269.931122 
	C369.588257,268.235718 377.685181,266.885529 385.706329,265.179260 
	C394.818207,263.240997 403.817322,260.760376 412.947937,258.926086 
	C423.027924,256.901093 432.628113,253.311508 442.477020,250.544449 
	C445.244598,249.766891 448.099731,248.288681 450.859894,250.498596 
	C451.022980,253.267197 448.902740,253.580734 447.275635,254.104889 
	C420.633514,262.687378 393.631195,269.956177 365.912323,273.962006 
	C358.789886,274.991333 353.722412,277.516907 348.994781,282.798248 
	C326.782013,307.612518 299.076385,323.268585 266.293365,328.673126 
	C215.114655,337.110321 171.259232,322.034760 134.923111,285.097961 
	C126.705925,276.744934 119.719894,267.396973 114.086647,257.116638 
	C112.242630,253.751419 109.994011,253.083298 106.341042,253.645630 
	C88.043922,256.462341 70.725533,262.087372 54.721622,271.403259 
	C49.342907,274.534210 44.416100,278.443024 39.295578,282.014709 
	C38.341621,282.680115 37.516357,283.553162 36.512383,284.118500 
	C34.914200,285.018433 32.968452,286.128662 31.503782,284.389313 
	C29.802435,282.368896 31.836847,281.073883 33.165863,279.920868 
	C47.495266,267.489014 64.111656,259.287476 82.141335,253.839233 
	C89.130882,251.727127 96.257233,250.055405 103.352966,248.312134 
	C107.108009,247.389603 108.293869,245.794418 106.397263,241.959946 
	C102.544502,234.170563 100.074402,225.834702 98.018593,217.422287 
	C97.217606,214.144623 95.854492,213.473206 92.784134,214.284317 
	C81.494301,217.266739 70.366249,220.637009 60.115162,226.403824 
	C57.214104,228.035843 57.204174,228.018188 54.147461,227.272003 
	C53.241913,228.029999 54.195198,229.415848 53.021126,230.263489 
	C47.626999,234.157959 42.404770,238.293121 36.964054,242.118927 
	C35.242065,243.329834 32.630730,244.419174 31.083881,242.286423 
	C29.291662,239.815369 31.965521,238.455612 33.543156,237.151886 
	C49.564461,223.912125 67.942581,215.322098 87.853233,209.797791 
	C95.504440,207.674896 95.461296,207.709290 94.747910,199.913147 
	C94.126167,193.118622 93.477562,186.331329 93.607086,179.480057 
	C93.727989,173.084717 92.410820,172.206711 86.075691,174.057419 
	C69.786880,178.815918 54.424053,185.404510 41.482704,196.763947 
	C39.878712,198.171875 38.056969,199.331711 36.513649,200.475006 
	C33.921574,200.134567 34.496902,196.830139 30.657850,197.520325 
	C37.167713,191.787247 43.057659,187.894196 48.968864,184.119781 
	C61.692574,175.995483 75.740555,170.901443 90.235832,166.972733 
	C92.983223,166.228119 94.323524,164.704422 94.714333,161.774902 
	C95.969902,152.363007 98.166496,143.142624 100.924721,134.052917 
	C102.349396,129.357925 101.444939,128.283234 96.415382,129.299759 
	C77.209625,133.181488 59.540485,140.596161 43.904316,152.575974 
	C41.398285,154.495972 38.891548,156.443451 36.211727,158.097229 
	C34.679882,159.042587 32.576164,159.784256 31.201504,157.936493 
	C29.643240,155.841949 31.660461,154.620865 32.962067,153.434998 
	C46.033810,141.525574 61.641914,134.264084 78.189514,128.666412 
	C86.387184,125.893333 94.686699,123.542412 103.150887,121.773094 
	C104.762169,121.436287 105.921280,120.669899 106.580757,119.196091 
	C111.847496,107.425766 118.624298,96.573952 126.472969,86.367622 
	C126.967400,85.724655 127.412865,84.971588 126.804893,83.700394 
	C120.898689,82.290543 114.812737,83.635307 108.875175,84.591568 
	C83.363029,88.700348 59.418221,96.692818 39.509869,114.076370 
	C39.260254,114.294327 38.984768,114.496269 38.691723,114.648712 
	C36.392662,115.844841 33.613529,118.382507 31.552555,115.800972 
	C29.349501,113.041428 32.987362,111.472565 34.677399,110.081726 
	C50.381855,97.157623 68.595589,89.202713 87.999924,83.760590 
	C102.396461,79.722931 117.109848,77.467392 132.038635,76.777069 
	C135.333908,76.624695 137.025864,74.470047 139.048019,72.533401 
	C163.064911,49.532207 191.502655,35.009560 224.586166,32.005207 
	C282.518524,26.744297 328.576385,48.665661 362.374481,96.013504 
	C364.836731,99.462852 366.927734,100.656250 371.273041,99.837219 
	C394.517517,95.455940 417.487030,90.033241 440.075562,83.005699 
	C442.299133,82.313927 444.544067,81.670349 446.812592,81.150551 
	C448.413391,80.783745 450.177917,80.406563 451.018677,83.598801 
	C424.723358,93.756622 397.168365,99.412743 369.124817,105.762558 
	C370.481812,108.804382 371.527679,111.371887 372.752533,113.850952 
	C375.930542,120.283066 378.989014,126.800148 380.827759,133.724655 
	C382.088745,138.473328 384.407532,139.059540 388.826263,138.077820 
	C407.351074,133.962143 425.843872,129.781433 443.862274,123.728783 
	C446.252502,122.925858 449.920776,121.079781 450.907104,124.066582 
	C452.062897,127.566338 447.650269,127.494110 445.444305,128.198792 
	C427.210510,134.023346 408.760895,139.086609 390.093536,143.345062 
	C388.331146,143.747101 386.631531,144.424454 384.606812,145.068069 
	C385.656616,152.693115 386.697784,160.189545 387.714081,167.689331 
	C387.937439,169.337540 388.157776,170.993912 388.232758,172.653152 
	C388.570984,180.134750 388.587677,180.293427 395.697845,178.684570 
	C404.764923,176.632874 413.766998,174.294052 423.191895,171.975891 
M193.288681,81.857208 
	C191.073822,81.570198 190.413925,79.828568 189.778488,78.081131 
	C187.618576,72.141525 185.422562,66.214371 183.342102,60.246971 
	C182.649033,58.259052 180.252548,56.112156 183.257309,54.122326 
	C186.098587,52.240772 188.761261,52.448944 191.399536,54.861027 
	C193.116028,56.430363 194.792038,58.348721 198.119980,58.904709 
	C197.328506,56.396786 196.829636,54.499992 196.132446,52.679131 
	C195.015610,49.762268 196.889038,48.793900 199.032913,47.935741 
	C201.383179,46.994968 202.659637,47.755459 203.535126,50.190033 
	C205.957153,56.925182 208.634384,63.568157 211.157104,70.267754 
	C211.822617,72.035156 212.621567,73.880867 210.723236,75.796791 
	C221.800873,73.208084 232.596344,71.419289 244.401794,71.703384 
	C236.588181,70.439194 236.556366,70.438766 236.653717,63.124084 
	C236.709106,58.960598 236.722183,54.785767 237.046082,50.638828 
	C237.777954,41.268288 237.851624,41.274044 247.336823,41.496590 
	C253.013168,41.629776 257.323181,44.647209 258.021057,50.093510 
	C259.068359,58.266716 259.973389,66.723656 249.928329,71.428520 
	C251.111481,71.943741 251.652679,72.340324 252.232605,72.408806 
	C277.649414,75.410118 299.368988,85.908737 317.259918,104.284187 
	C318.396149,105.451202 319.614624,107.331070 322.081970,105.913010 
	C322.121094,103.585052 320.900513,101.430077 321.226471,98.846191 
	C321.517334,96.540611 318.862854,93.919388 316.181458,94.814362 
	C311.764893,96.288475 310.217804,93.613739 307.713898,90.376343 
	C316.655060,84.826378 325.308289,79.455132 334.721985,73.611847 
	C302.089722,45.609341 265.235413,33.770649 223.096512,38.396130 
	C196.319031,41.335434 153.913910,62.038155 147.476578,75.418739 
	C149.573975,75.999039 151.499146,72.640556 153.425995,74.810593 
	C156.401840,78.162003 160.351410,78.239220 164.260788,79.056549 
	C169.617355,80.176445 175.113190,81.324257 180.052200,83.558891 
	C185.362427,85.961479 189.761429,86.282906 194.739151,81.860222 
	C198.104355,80.267700 202.092072,80.073051 205.341888,77.327110 
	C202.453827,74.389671 200.096466,71.303642 195.887619,69.691925 
	C195.796295,74.180931 200.871277,79.175728 193.288681,81.857208 
M337.892059,192.326813 
	C337.854370,191.198349 336.954926,189.597473 337.970490,189.022629 
	C342.671936,186.361496 341.447052,181.879593 341.577454,177.908783 
	C341.802185,171.064789 340.459778,164.387268 339.141144,157.693695 
	C338.464905,154.261093 337.057617,152.561111 333.495117,153.270264 
	C325.962280,154.769730 318.509918,153.942932 310.780762,158.112244 
	C303.985596,161.777740 294.012604,160.609146 285.600372,157.961319 
	C283.460724,157.287842 281.471741,155.162674 279.280304,157.398788 
	C277.401337,159.316086 275.171265,159.299072 272.831329,159.299667 
	C261.019470,159.302658 249.207520,159.298416 237.395935,159.361389 
	C236.128983,159.368134 234.618149,158.838867 233.262711,160.218491 
	C244.647339,162.281876 252.739426,171.479889 251.348984,182.514023 
	C250.872986,186.291336 252.319366,188.025787 255.986908,188.550644 
	C268.511353,190.342957 281.099976,191.721436 293.735779,191.557007 
	C305.173737,191.408142 316.625488,190.579605 328.016724,189.484497 
	C332.238556,189.078598 335.699524,188.862732 337.769714,193.558640 
	C334.071106,194.396591 330.410828,195.676468 326.667725,196.000946 
	C301.921143,198.146088 277.164276,198.546570 252.501526,195.026413 
	C249.045761,194.533173 246.614777,195.116714 243.863480,197.194794 
	C233.784286,204.807693 219.579208,202.962173 213.949661,192.147934 
	C210.476593,185.476242 205.630920,182.991989 199.318909,181.159256 
	C194.528427,179.768341 189.849533,177.991486 185.126221,176.371140 
	C173.462921,172.370026 161.566162,169.323914 149.353271,167.546982 
	C141.840332,166.453888 140.362762,167.645966 140.363098,175.183884 
	C140.363388,181.830139 140.194733,188.458954 141.208481,195.100983 
	C142.293457,202.209946 142.468140,203.031952 149.612213,203.522202 
	C165.402191,204.605804 180.283524,209.233505 195.039536,214.490402 
	C196.881744,215.146698 198.658264,216.194107 201.017944,215.742172 
	C200.756668,213.128937 200.997147,210.337631 200.129379,207.948929 
	C198.381927,203.138718 200.654617,202.569000 204.579987,202.592438 
	C219.898392,202.683884 235.217773,202.608109 250.536591,202.653366 
	C252.088608,202.657959 253.889740,202.084671 255.345291,204.044724 
	C251.116333,208.075821 247.901321,213.230240 241.979523,215.214615 
	C237.304092,216.781326 238.590118,220.651932 238.364105,223.996536 
	C238.119415,227.617294 240.995193,227.833939 243.297211,228.456955 
	C251.657135,230.719482 260.232178,231.541153 268.830322,232.443222 
	C287.306946,234.381699 305.711609,233.520996 324.142120,232.039795 
	C327.547333,231.766144 329.498627,230.108948 330.989380,227.155304 
	C335.602905,218.014343 338.458130,208.308929 340.429474,198.334091 
	C340.821045,196.353027 341.465454,193.544281 337.892059,192.326813 
M155.799789,235.730164 
	C158.006622,238.855469 160.183472,242.002609 162.435318,245.095139 
	C163.314148,246.302032 164.308990,247.376907 165.954147,247.678360 
	C179.097153,250.086533 191.309387,255.527069 203.939529,259.579529 
	C223.622025,265.894745 243.510345,271.271637 263.989044,273.995453 
	C270.705231,274.888763 277.763977,276.997620 284.532104,273.606445 
	C299.067902,266.323242 311.301880,256.260681 321.051300,243.233871 
	C321.980316,241.992554 323.528473,240.936722 323.100494,238.756302 
	C322.124817,238.694061 321.150543,238.502136 320.202454,238.590607 
	C301.787201,240.309189 283.388641,240.316422 264.961792,238.576370 
	C257.503021,237.872025 250.110748,236.939285 242.757111,235.519196 
	C237.567474,234.516983 236.399261,235.697815 236.931107,240.823868 
	C237.215546,243.565460 237.388550,246.071838 234.135971,247.463531 
	C231.926865,248.408752 233.093857,250.488754 233.539902,252.602142 
	C229.937012,252.313705 227.889359,253.976517 226.263535,256.919037 
	C224.832642,259.508759 222.391525,259.776031 219.967102,257.633514 
	C218.297836,256.158386 216.674133,254.420273 216.348450,252.356171 
	C214.945786,243.466125 208.500763,236.584549 206.848602,227.840118 
	C206.427780,225.612885 204.581909,225.121002 202.860855,224.549957 
	C192.792145,221.209122 182.763062,217.734619 172.617081,214.645218 
	C163.615387,211.904251 154.414200,210.001602 144.406387,209.562683 
	C146.749054,219.110168 150.759293,227.246429 155.799789,235.730164 
M161.734528,299.693695 
	C180.562057,312.230865 200.892792,320.184235 223.581726,323.182098 
	C246.485641,326.208344 268.262665,323.318939 289.710693,315.682281 
	C312.603577,307.531281 339.110138,287.253693 342.591217,278.765808 
	C341.470642,278.636200 340.592651,279.235291 339.992126,280.001556 
	C337.747742,282.865112 335.453766,283.797211 332.726196,280.601349 
	C332.434875,280.260010 331.853699,279.987854 331.405212,279.985229 
	C323.020691,279.935608 314.778748,281.217407 305.648224,282.118591 
	C310.169647,288.297241 316.362000,291.360046 320.422546,296.503967 
	C318.833008,299.307678 316.493011,301.413666 313.847260,300.278381 
	C308.125275,297.823059 305.910522,299.792053 305.116028,305.389374 
	C304.773682,307.801147 302.462433,308.912506 300.318024,309.162689 
	C297.601135,309.479736 297.958344,306.966614 297.600464,305.286438 
	C296.596039,300.570618 295.546844,295.862183 294.663116,291.123291 
	C292.901581,281.677032 290.509308,280.137177 280.968903,282.540039 
	C280.001190,282.783722 279.035400,283.065857 278.106110,283.426453 
	C267.934265,287.373505 257.332062,289.289886 246.504547,290.124268 
	C240.261673,290.605316 238.308273,293.283173 239.905716,299.611206 
	C241.370590,305.414062 243.023254,311.169495 244.587204,316.947418 
	C245.091980,318.812317 246.488892,321.171814 244.263031,322.340210 
	C242.017166,323.519073 239.426849,322.900299 237.490768,320.837341 
	C233.844254,316.951904 232.035461,316.862030 228.448456,320.457428 
	C226.359222,322.551575 223.747589,322.641022 221.566467,321.406525 
	C219.067642,319.992279 221.059006,317.863434 221.740051,316.149139 
	C224.075424,310.270660 226.623306,304.474548 228.867462,298.562469 
	C230.851532,293.335571 228.906052,289.614655 223.680405,288.766205 
	C199.959305,284.914917 180.152328,273.821777 163.659332,256.557617 
	C161.853729,254.667587 159.835709,253.630096 157.266556,253.054642 
	C149.438766,251.301331 141.468750,250.810776 133.564438,251.153778 
	C129.020874,251.350952 123.954346,249.933762 119.422005,253.194946 
	C129.917175,271.967285 143.926056,287.069550 161.734528,299.693695 
M232.977295,116.479210 
	C234.395905,119.439743 236.871399,122.630348 231.142776,123.927551 
	C232.222366,126.512894 233.221802,128.906311 234.111023,131.035782 
	C233.281418,132.587372 231.965958,132.642212 231.029373,133.277878 
	C228.497864,134.996048 228.508270,138.652283 231.280212,138.978302 
	C236.236801,139.561279 239.467560,143.570038 244.271774,144.224976 
	C250.669952,145.097214 256.966461,146.796402 263.377106,147.470474 
	C268.538879,148.013245 273.662781,148.668198 278.980804,146.248367 
	C282.581421,144.610031 286.987640,143.031708 291.477966,144.841904 
	C295.858551,146.607880 299.472260,145.196274 302.457001,141.585953 
	C303.487091,140.339935 305.021790,139.501846 306.355988,138.518082 
	C311.271362,134.893753 321.713776,137.357590 322.270691,143.116989 
	C322.988617,150.542007 327.637848,147.264603 330.793274,147.457520 
	C334.353210,147.675201 335.810669,145.803543 334.303619,142.008438 
	C330.269867,131.850266 324.547333,122.758858 317.563202,114.409805 
	C316.551453,113.200356 315.456604,112.482407 313.725586,112.593941 
	C310.091919,112.828064 306.435577,112.711044 302.802307,112.949013 
	C284.308289,114.160309 265.859985,113.315918 247.725357,109.786934 
	C240.634064,108.406975 236.356232,109.946762 232.977295,116.479210 
M331.370117,239.717651 
	C322.852051,253.652252 311.268616,264.671753 297.119507,274.479492 
	C303.873169,276.522308 309.262634,275.246033 314.821228,274.279022 
	C314.505249,271.874634 312.295044,270.083527 314.495605,267.936493 
	C318.429443,264.098480 322.209747,260.103210 326.061035,256.180359 
	C327.856750,254.351273 329.314117,255.452332 330.805206,256.703156 
	C332.401520,258.042297 333.267029,259.382172 331.590271,261.315308 
	C330.761749,262.270508 329.440613,263.015625 329.710266,265.052551 
	C330.583466,266.006836 331.675659,267.242920 332.812866,268.436066 
	C338.540222,274.445068 348.498871,273.951843 353.458313,267.372375 
	C358.685211,260.438171 363.293793,253.092667 367.000671,245.250015 
	C368.987488,241.046494 371.547485,236.941788 371.960815,231.962708 
	C367.442902,231.553986 362.735321,235.153732 359.229675,230.177948 
	C360.552429,228.475998 361.889984,227.844849 363.671173,228.771805 
	C364.087311,228.988358 364.466156,229.276474 364.862152,229.531662 
	C365.786499,224.320007 370.366577,226.804291 373.200073,225.647247 
	C374.599243,225.075928 375.328033,224.293732 375.765503,222.913818 
	C378.995331,212.726273 380.759033,202.265396 381.610687,191.640442 
	C381.786194,189.450531 381.613770,187.240692 380.099518,186.710373 
	C371.970459,188.935501 364.967377,191.767044 357.290009,191.021973 
	C353.513947,190.655502 347.894257,193.392776 347.282806,196.753220 
	C345.338715,207.437454 342.599121,217.862061 337.996765,227.741470 
	C336.794800,230.321671 338.409149,231.758377 340.376678,230.831085 
	C344.388214,228.940445 348.648804,230.820160 352.595032,229.263016 
	C354.664490,228.446411 355.697235,229.997208 356.022888,231.790817 
	C356.321289,233.434341 355.273804,234.378998 353.719971,234.356949 
	C349.070923,234.291016 344.896759,236.704346 340.144379,236.601974 
	C337.405090,236.542984 334.030243,236.470917 331.370117,239.717651 
M227.650208,79.354515 
	C217.441177,80.674370 207.699799,83.431587 197.362488,88.912529 
	C234.282562,102.208290 270.691681,109.750557 309.727631,106.794235 
	C293.224182,87.037277 255.168289,74.495827 227.650208,79.354515 
M165.052353,128.386017 
	C163.098419,128.001862 161.134735,127.660721 159.193314,127.221291 
	C157.304657,126.793793 155.545853,126.608170 154.406723,128.644302 
	C148.965393,138.370316 144.411697,148.421387 142.625458,159.795853 
	C147.879501,161.181290 152.804672,161.744980 157.924683,162.080170 
	C165.349442,162.566208 172.622742,164.633942 179.728287,167.074005 
	C188.530060,170.096573 197.401520,172.915619 206.226379,175.871857 
	C208.252960,176.550751 210.087387,177.132553 211.149139,174.469742 
	C214.304626,166.556000 219.969055,161.575974 228.552521,159.779938 
	C217.154877,159.309433 205.888657,158.878448 194.678558,159.484985 
	C188.768494,159.804764 185.507172,157.695770 183.407562,152.347473 
	C185.723862,150.601822 186.327408,145.965759 190.031448,146.695206 
	C195.769150,147.825134 197.410019,143.898346 200.455383,140.268082 
	C189.453506,133.598267 177.272308,132.086288 165.052353,128.386017 
M209.489731,127.040863 
	C210.712250,124.495605 211.156296,122.477470 208.385422,120.151711 
	C205.543854,117.766632 206.379684,113.656494 207.387512,110.789566 
	C208.327194,108.116516 211.437027,109.943565 213.616028,110.351967 
	C218.169632,111.205414 221.636337,109.824280 224.069214,105.377045 
	C221.620514,104.588242 221.186142,102.202110 219.622742,100.575043 
	C218.817719,102.228096 218.134796,103.220528 216.184952,102.522606 
	C208.367096,99.724335 200.347229,97.433693 192.705292,94.231628 
	C190.032486,93.111694 188.402206,93.396629 186.404541,94.738434 
	C177.645248,100.621971 169.877365,107.599319 163.257050,115.829002 
	C162.451843,116.829941 161.362549,117.781662 162.076004,119.622673 
	C163.261642,120.094261 164.588730,120.840919 166.011185,121.153465 
	C177.866638,123.758316 189.121399,128.272736 200.628754,131.977798 
	C206.550812,133.884552 207.076233,133.712250 209.489731,127.040863 
M125.930359,125.130730 
	C124.601906,125.062080 123.116951,124.573669 121.973091,125.000137 
	C117.843941,126.539581 111.940353,124.083839 109.605370,129.459854 
	C105.278290,139.422455 103.033516,150.018951 101.413857,160.729904 
	C100.880890,164.254486 103.180176,165.304092 105.914101,164.463669 
	C113.914711,162.004196 122.020012,160.897324 130.380676,161.181747 
	C132.633850,161.258392 135.355515,161.033371 136.004379,158.115372 
	C138.463348,147.057007 142.421158,136.557312 148.070435,126.401360 
	C140.708740,123.836754 133.723465,125.030525 125.930359,125.130730 
M104.471436,217.316803 
	C106.565666,224.664062 108.961205,231.898651 112.039307,238.908493 
	C115.539825,246.880295 115.476685,246.937424 123.850601,245.592270 
	C131.415268,244.377106 139.021072,245.493576 146.602982,245.113235 
	C152.006943,244.842178 152.903473,243.764252 150.230453,239.313065 
	C145.152023,230.856277 141.120789,221.952408 138.296600,212.525497 
	C137.439972,209.666077 135.729568,209.181625 133.115097,209.151779 
	C124.439339,209.052765 115.908600,210.399033 107.330544,211.346771 
	C103.629150,211.755692 103.575699,213.817261 104.471436,217.316803 
M360.051971,143.539581 
	C364.123230,142.732147 368.182068,141.853378 372.269897,141.140854 
	C375.307983,140.611298 376.054749,139.238297 375.020203,136.256271 
	C372.015503,127.595207 368.513397,119.177765 364.180603,111.085747 
	C362.388702,107.739098 360.133942,106.989746 356.439240,107.637085 
	C346.024689,109.461800 335.588959,111.312241 324.857483,111.493515 
	C324.954346,111.974396 324.910034,112.538414 325.161926,112.890572 
	C331.963684,122.399506 337.872986,132.394806 341.892334,143.424866 
	C342.824524,145.982941 344.757721,145.673447 346.833282,145.352921 
	C350.938110,144.719025 355.060364,144.198029 360.051971,143.539581 
M147.044510,83.272102 
	C143.593414,83.629356 139.781982,80.734993 136.696274,84.347366 
	C128.773026,93.622963 121.585899,103.417587 116.273369,114.449104 
	C114.496002,118.139839 115.771210,119.971573 119.828003,119.510315 
	C129.634460,118.395317 139.454620,118.625710 149.278625,118.821373 
	C151.470123,118.865028 153.027008,118.162483 154.406921,116.409111 
	C157.391754,112.616402 160.498672,108.912025 163.705673,105.304893 
	C165.545670,103.235321 165.949600,101.648354 163.808533,99.371239 
	C159.818512,95.127678 156.154556,90.577194 152.363586,86.147026 
	C151.150818,84.729774 149.884109,83.420036 147.044510,83.272102 
M381.700714,176.184174 
	C381.874298,169.685059 381.021545,163.284866 379.947571,156.894287 
	C379.010559,151.318680 379.410065,144.930054 373.312988,144.548553 
	C363.950348,150.755386 353.944641,149.098450 344.966614,152.276657 
	C345.214203,154.114136 345.476837,156.054413 345.736908,157.995026 
	C346.763794,165.657639 348.592590,173.221558 348.353607,181.039932 
	C348.275421,183.597366 347.708832,186.619705 351.920349,186.765015 
	C356.949341,186.938507 360.031464,185.077850 360.416351,181.197144 
	C360.715637,178.179657 362.023041,175.961380 365.219208,175.864166 
	C368.327057,175.769608 370.096252,177.612473 370.383240,180.764099 
	C370.457458,181.579376 370.425842,182.454391 371.371460,182.863968 
	C379.744232,182.795959 381.096497,182.037720 381.700714,176.184174 
M110.158829,168.781448 
	C108.178841,169.002899 106.185280,169.142258 104.222328,169.466782 
	C101.818504,169.864197 100.361877,171.146820 100.322548,173.818939 
	C100.182968,183.301727 99.994286,192.782822 101.484695,202.196808 
	C101.885139,204.726212 103.210548,206.177155 105.928543,205.624893 
	C113.945457,203.995911 122.093132,203.700073 130.218338,203.220978 
	C134.076492,202.993484 135.399612,201.261292 134.877029,197.406799 
	C133.690109,188.652252 133.035141,179.858536 134.268311,171.029587 
	C134.671234,168.144882 133.085022,167.268295 130.428833,167.208145 
	C123.910286,167.060547 117.478149,167.964447 110.158829,168.781448 
M201.944778,275.503601 
	C220.646545,283.711426 239.955551,285.759949 260.043152,281.356995 
	C257.793671,280.566681 256.335815,279.517609 258.370422,276.154175 
	C255.770828,278.012115 254.592392,279.796021 252.170288,279.180054 
	C244.293259,277.176910 236.154449,276.594513 228.250565,274.559357 
	C212.778488,270.575470 197.988663,264.539337 182.717911,259.977356 
	C181.108643,259.496582 179.362503,258.201660 177.650482,260.608246 
	C184.774567,266.781097 192.711441,271.459442 201.944778,275.503601 
M337.278564,104.673698 
	C343.867859,103.531746 350.705322,103.686699 357.801941,101.161720 
	C352.391998,92.995003 347.327576,85.479225 339.790222,79.262634 
	C336.299622,88.159149 331.520386,95.706886 328.860199,104.181961 
	C331.788055,105.494644 334.106415,104.702820 337.278564,104.673698 
M173.127441,96.384758 
	C174.783798,94.495857 177.853165,93.869881 178.419144,90.463982 
	C174.560226,88.668816 170.957947,86.636383 166.368301,87.844559 
	C167.081268,91.738243 170.967468,93.484062 170.524155,97.283981 
	C170.470718,97.741982 171.917725,97.159195 173.127441,96.384758 
M249.060287,50.790272 
	C247.160934,49.220814 245.654327,49.249882 245.395752,52.034863 
	C245.153183,54.647430 245.220703,57.293411 245.243729,59.923885 
	C245.253860,61.083103 245.441437,62.317379 246.929550,62.540695 
	C248.268570,62.741631 249.145370,61.954453 249.628052,60.833248 
	C250.988144,57.673954 251.253479,54.493549 249.060287,50.790272 
z"/>
<path fill="#000000" opacity="1.000000" stroke="none" 
	d="
M151.572968,289.282043 
	C149.447586,287.554321 149.728943,285.992706 151.041748,284.302460 
	C155.114273,279.059204 159.173096,273.804932 163.189758,268.518829 
	C164.443832,266.868439 165.797150,266.606232 167.418320,267.870819 
	C170.557938,270.319885 173.896591,272.564697 176.758759,275.305603 
	C180.295914,278.692902 180.139664,282.460480 176.369308,285.614746 
	C174.474289,287.200104 173.462296,288.844543 172.795380,291.211121 
	C171.163635,297.001343 166.591476,298.809906 161.106995,296.227264 
	C157.598877,294.575348 154.955490,291.735291 151.572968,289.282043 
z"/>
<path fill="#000000" opacity="1.000000" stroke="none" 
	d="
M264.148926,319.963196 
	C261.280090,319.128296 261.610687,316.735107 261.135529,314.950562 
	C259.726746,309.660004 258.712280,304.263733 257.276367,298.981445 
	C256.529205,296.232880 257.329376,294.916626 259.996796,294.327057 
	C263.400940,293.574707 266.744019,292.502045 270.172943,291.915741 
	C276.154358,290.892914 280.771088,295.216309 279.038544,301.023987 
	C277.810364,305.141052 278.884155,307.417419 281.588989,309.971802 
	C282.865540,311.177277 284.118561,312.628387 284.499176,314.524872 
	C276.778168,321.909637 274.106476,312.746857 269.217316,309.450775 
	C268.250793,313.518219 273.465942,320.237457 264.148926,319.963196 
z"/>
<path fill="#000000" opacity="1.000000" stroke="none" 
	d="
M197.331635,293.922058 
	C200.206970,298.486450 201.626251,298.557587 203.380905,294.108948 
	C204.744308,290.652252 206.415619,290.014130 209.812424,291.430145 
	C213.356186,292.907410 212.430908,294.967194 211.472580,297.445984 
	C209.373215,302.876160 207.364578,308.341583 205.346970,313.803040 
	C204.533600,316.004761 203.525208,317.936859 200.682114,316.787720 
	C198.062469,315.728882 195.799301,314.383820 197.312485,310.850220 
	C198.024277,309.188080 198.479019,307.415894 199.121155,305.479645 
	C195.609573,302.930939 193.144592,302.909485 191.830872,307.580170 
	C191.009644,310.499878 189.827560,312.918091 185.877777,311.463043 
	C183.115967,310.445648 182.176620,309.089020 183.333496,306.216797 
	C185.632843,300.508118 187.793015,294.741486 189.908585,288.961456 
	C190.893585,286.270325 192.071030,284.595276 195.380447,285.963684 
	C198.235641,287.144287 199.403900,288.707977 197.961136,291.675110 
	C197.674179,292.265259 197.552536,292.935760 197.331635,293.922058 
z"/>
<path fill="#000000" opacity="1.000000" stroke="none" 
	d="
M283.507080,69.557098 
	C285.566345,64.408607 287.577698,59.656132 289.376251,54.824455 
	C290.415985,52.031185 291.746857,50.682961 294.947388,51.940693 
	C298.033752,53.153553 298.416290,54.781319 297.141937,57.702999 
	C294.549164,63.647530 292.280975,69.733688 289.882446,75.762871 
	C288.808624,78.462128 287.995209,81.215210 283.909851,79.514084 
	C279.974640,77.875465 280.929993,75.396439 282.145782,72.653923 
	C282.550476,71.741096 282.961670,70.831154 283.507080,69.557098 
z"/>
<path fill="#000000" opacity="1.000000" stroke="none" 
	d="
M121.455360,180.263824 
	C121.379234,184.519394 119.351837,186.640274 115.508141,186.045609 
	C112.344521,185.556152 111.418922,183.007263 111.745590,180.021393 
	C111.993454,177.755737 113.403877,176.360657 115.517120,175.956528 
	C118.640602,175.359207 120.555794,176.908005 121.455360,180.263824 
z"/>
</svg>